Run_20001
nRows=4
nColumns=164

# SIMM Motion File Header:
name Run_20001
datacolumns 164
datarows 4
otherdata 1
range 0.03333300 0.05833300
endheader
time	pelvis_tilt	pelvis_list	pelvis_rotation	pelvis_tx	pelvis_ty	pelvis_tz	hip_flexion_r	hip_adduction_r	hip_rotation_r	knee_angle_r	ankle_angle_r	hip_flexion_l	hip_adduction_l	hip_rotation_l	knee_angle_l	ankle_angle_l	lumbar_extension	lumbar_bending	lumbar_rotation	arm_flex_r	arm_add_r	arm_rot_r	elbow_flex_r	pro_sup_r	arm_flex_l	arm_add_l	arm_rot_l	elbow_flex_l	pro_sup_l	subtalar_angle_r	mtp_angle_r	subtalar_angle_l	mtp_angle_l	wrist_flex_r	wrist_dev_r	wrist_flex_l	wrist_dev_l	LASI_tx	LASI_ty	LASI_tz	RASI_tx	RASI_ty	RASI_tz	LPSI_tx	LPSI_ty	LPSI_tz	RPSI_tx	RPSI_ty	RPSI_tz	RTH1_tx	RTH1_ty	RTH1_tz	RTH2_tx	RTH2_ty	RTH2_tz	RTH3_tx	RTH3_ty	RTH3_tz	LTH1_tx	LTH1_ty	LTH1_tz	LTH2_tx	LTH2_ty	LTH2_tz	LTH3_tx	LTH3_ty	LTH3_tz	RTB1_tx	RTB1_ty	RTB1_tz	RTB2_tx	RTB2_ty	RTB2_tz	RTB3_tx	RTB3_ty	RTB3_tz	LTB1_tx	LTB1_ty	LTB1_tz	LTB2_tx	LTB2_ty	LTB2_tz	LTB3_tx	LTB3_ty	LTB3_tz	RCAL_tx	RCAL_ty	RCAL_tz	RTOE_tx	RTOE_ty	RTOE_tz	RMT5_tx	RMT5_ty	RMT5_tz	LCAL_tx	LCAL_ty	LCAL_tz	LTOE_tx	LTOE_ty	LTOE_tz	LMT5_tx	LMT5_ty	LMT5_tz	LACR_tx	LACR_ty	LACR_tz	RACR_tx	RACR_ty	RACR_tz	CLAV_tx	CLAV_ty	CLAV_tz	C7_tx	C7_ty	C7_tz	RUA1_tx	RUA1_ty	RUA1_tz	RUA2_tx	RUA2_ty	RUA2_tz	RUA3_tx	RUA3_ty	RUA3_tz	RLEL_tx	RLEL_ty	RLEL_tz	RMEL_tx	RMEL_ty	RMEL_tz	LUA1_tx	LUA1_ty	LUA1_tz	LUA2_tx	LUA2_ty	LUA2_tz	LUA3_tx	LUA3_ty	LUA3_tz	LLEL_tx	LLEL_ty	LLEL_tz	LMEL_tx	LMEL_ty	LMEL_tz	RFAsuperior_tx	RFAsuperior_ty	RFAsuperior_tz	RFAradius_tx	RFAradius_ty	RFAradius_tz	RFAulna_tx	RFAulna_ty	RFAulna_tz	LFAsuperior_tx	LFAsuperior_ty	LFAsuperior_tz	LFAradius_tx	LFAradius_ty	LFAradius_tz	LFAulna_tx	LFAulna_ty	LFAulna_tz
      0.03333300	     -3.07968079	     -1.42827490	      0.25939083	      1.06369926	      1.01058479	     -0.31336120	     34.93186695	      2.91746070	     -0.08448273	    -51.76124024	     -2.44751062	     -2.83356859	      3.97512679	      4.68211656	    -24.85896278	      0.28677134	     -6.76234500	      0.77643462	     -7.63417075	    -38.10053810	     -8.04708509	     -7.80632911	     57.03638287	     60.15288859	    -21.40571004	    -16.27120369	      2.55094187	    122.43088338	     81.98931520	      0.00000000	      0.00000000	      0.00000000	      0.00000000	      0.00000000	      0.00000000	      0.00000000	      0.00000000	      1.07086859	      1.01342297	     -0.42447568	      1.06731117	      1.02536782	     -0.19155873	      0.90371468	      1.05718366	     -0.36427800	      0.90078561	      1.05710712	     -0.26607266	      1.05175532	      0.87265341	     -0.13118477	      1.18003462	      0.76829542	     -0.16003439	      1.16094456	      0.66392472	     -0.17445884	      0.98474878	      0.84648754	     -0.48186464	      1.04578145	      0.73854342	     -0.45579241	      0.94947039	      0.62622515	     -0.44084054	      1.22991403	      0.44726102	     -0.22545805	      1.15759337	      0.40844363	     -0.17010289	      1.16264982	      0.27955467	     -0.22634620	      0.93178721	      0.38470770	     -0.37226288	      0.84687051	      0.31955034	     -0.41555171	      0.82089968	      0.22635081	     -0.34608811	      1.01062626	      0.17366976	     -0.26093649	      1.21068274	      0.10630582	     -0.25805008	      1.17731399	      0.07929604	     -0.15647384	      0.65437373	      0.16486920	     -0.33497840	      0.83541448	      0.07656029	     -0.28712469	      0.81791761	      0.04338791	     -0.39289182	      1.06401461	      1.50172859	     -0.50332709	      1.02829338	      1.49757694	     -0.13992654	      1.11816250	      1.45222171	     -0.28639602	      1.00858242	      1.53363704	     -0.33260569	      0.97862459	      1.42800629	     -0.09742787	      0.95946165	      1.34114163	     -0.11332853	      0.87710225	      1.36506139	     -0.11727311	      0.81309456	      1.27262012	     -0.10106316	      0.81410443	      1.27170048	     -0.16682957	      1.03785179	      1.42101813	     -0.55419614	      0.97041051	      1.37164954	     -0.54104141	      1.02806174	      1.31501757	     -0.57161859	      0.95930391	      1.21408814	     -0.60231527	      0.91505843	      1.21450969	     -0.53979347	      0.85577412	      1.19400787	     -0.07267781	      0.89022736	      1.00908983	     -0.07843078	      0.82758697	      1.00510671	     -0.10437812	      1.04098913	      1.21577544	     -0.57899675	      1.18542768	      1.23190058	     -0.45346986	      1.18355504	      1.16515278	     -0.45738776
      0.04166700	     -3.05947438	     -2.06130411	     -0.09792807	      1.06568087	      1.01702678	     -0.31292617	     33.87247790	      3.92597710	      0.45255224	    -46.84000284	     -4.41756666	     -4.24756024	      3.12800445	      4.10783781	    -23.64024390	     -3.13268108	     -6.57743205	      1.56231148	     -7.59439003	    -39.16077191	     -8.17296918	     -8.34996567	     57.67741242	     60.74757414	    -21.62234892	    -16.29094344	      2.95303797	    123.74173758	     81.33416958	      0.00000000	      0.00000000	      0.00000000	      0.00000000	      0.00000000	      0.00000000	      0.00000000	      0.00000000	      1.07325979	      1.01880893	     -0.42418025	      1.06856318	      1.03265705	     -0.19171545	      0.90561555	      1.06311549	     -0.36528804	      0.90268310	      1.06348322	     -0.26731275	      1.05291479	      0.88032270	     -0.13066726	      1.17767932	      0.77143304	     -0.16110389	      1.15728300	      0.66827129	     -0.17446499	      0.98485474	      0.85277384	     -0.48254930	      1.04280675	      0.74345810	     -0.45558327	      0.94387928	      0.63321022	     -0.44144342	      1.23394669	      0.45129434	     -0.22644022	      1.16635468	      0.40771256	     -0.16932228	      1.17812192	      0.27972750	     -0.22707847	      0.92264875	      0.39140196	     -0.37408236	      0.83741566	      0.32676866	     -0.41720457	      0.81215079	      0.23285222	     -0.34809685	      1.03267318	      0.16641288	     -0.25916300	      1.23513673	      0.10740701	     -0.26272040	      1.20524757	      0.07559443	     -0.16159883	      0.64634817	      0.17534861	     -0.33615342	      0.82156518	      0.07726408	     -0.28722089	      0.80215821	      0.04421227	     -0.39324786	      1.06573638	      1.50852867	     -0.50196327	      1.02758573	      1.50367463	     -0.13973508	      1.11798757	      1.45842745	     -0.28500911	      1.00915215	      1.53962558	     -0.33186859	      0.97673774	      1.43569364	     -0.09763701	      0.95731027	      1.34873040	     -0.11329432	      0.87543502	      1.37369291	     -0.11818196	      0.80987391	      1.28197547	     -0.10296224	      0.81152459	      1.28149757	     -0.16852983	      1.04008100	      1.42847143	     -0.55340259	      0.97262762	      1.37943493	     -0.54132474	      1.03064176	      1.32264976	     -0.57172428	      0.96215399	      1.22140997	     -0.60311149	      0.91697176	      1.22200111	     -0.54100454	      0.85161737	      1.20340635	     -0.07375087	      0.88553633	      1.01794160	     -0.07869342	      0.82279729	      1.01463067	     -0.10462730	      1.04355484	      1.22435622	     -0.57911796	      1.18584382	      1.24453383	     -0.45162279	      1.18503264	      1.17789852	     -0.45390562
      0.05000000	     -3.02164954	     -2.62432480	     -0.44859780	      1.06775270	      1.02316640	     -0.31249707	     32.64533493	      4.84993426	      1.17289740	    -41.77579268	     -6.61528113	     -5.61330360	      2.38206455	      3.50111717	    -22.52814977	     -6.52733342	     -6.40957472	      2.27742112	     -7.52525424	    -40.21359825	     -8.25181049	     -8.95937696	     58.33287454	     61.33689127	    -21.85885516	    -16.33860253	      3.35516459	    124.98397504	     80.83668611	      0.00000000	      0.00000000	      0.00000000	      0.00000000	      0.00000000	      0.00000000	      0.00000000	      0.00000000	      1.07570442	      1.02411163	     -0.42400287	      1.06983209	      1.03957885	     -0.19184129	      0.90776978	      1.06874773	     -0.36634625	      0.90440970	      1.06968813	     -0.26852421	      1.05400435	      0.88741426	     -0.13031698	      1.17511275	      0.77448611	     -0.16157718	      1.15357949	      0.67214504	     -0.17430104	      0.98515043	      0.85855146	     -0.48302224	      1.04012416	      0.74832610	     -0.45550867	      0.93878492	      0.64022015	     -0.44202550	      1.23749375	      0.45508892	     -0.22738608	      1.17472893	      0.40710022	     -0.16861720	      1.19300180	      0.28018877	     -0.22778169	      0.91412992	      0.39803378	     -0.37578376	      0.82851129	      0.33396794	     -0.41881525	      0.80387788	      0.23934044	     -0.35004280	      1.05426134	      0.15981110	     -0.25749423	      1.25879291	      0.10908047	     -0.26743381	      1.23248802	      0.07258623	     -0.16695888	      0.63893189	      0.18607393	     -0.33739017	      0.80788498	      0.07820725	     -0.28747402	      0.78668504	      0.04548670	     -0.39359475	      1.06736890	      1.51499837	     -0.50057274	      1.02702009	      1.50939830	     -0.13953839	      1.11779933	      1.46426861	     -0.28367819	      1.00965349	      1.54530452	     -0.33108387	      0.97515575	      1.44302734	     -0.09766723	      0.95528478	      1.35602030	     -0.11314257	      0.87391290	      1.38200951	     -0.11912927	      0.80687211	      1.29095376	     -0.10484465	      0.80929291	      1.29081881	     -0.17022226	      1.04219139	      1.43562792	     -0.55255103	      0.97469665	      1.38692229	     -0.54151533	      1.03299846	      1.33002842	     -0.57183236	      0.96475424	      1.22849174	     -0.60392424	      0.91869569	      1.22920122	     -0.54229538	      0.84768308	      1.21243316	     -0.07477625	      0.88122979	      1.02646397	     -0.07888657	      0.81848672	      1.02355803	     -0.10482532	      1.04585579	      1.23260303	     -0.57923174	      1.18600272	      1.25651891	     -0.44990274	      1.18621834	      1.18998159	     -0.45075166
      0.05833300	     -2.97589694	     -3.04186927	     -0.79983145	      1.06988634	      1.02881087	     -0.31206109	     31.32409211	      5.59792683	      2.03887204	    -36.76793147	     -8.79536529	     -6.83711370	      1.82292002	      2.85462028	    -21.67478501	     -9.76486751	     -6.24565863	      2.83594539	     -7.40121302	    -41.22682520	     -8.25079692	     -9.63843677	     58.99248810	     61.87591955	    -22.13057319	    -16.43203102	      3.75007987	    126.10317064	     80.56463473	      0.00000000	      0.00000000	      0.00000000	      0.00000000	      0.00000000	      0.00000000	      0.00000000	      0.00000000	      1.07820077	      1.02922201	     -0.42399487	      1.07113292	      1.04583633	     -0.19193565	      0.91027625	      1.07390258	     -0.36742248	      0.90594218	      1.07552008	     -0.26963173	      1.05492294	      0.89351774	     -0.13026024	      1.17230579	      0.77726120	     -0.16125891	      1.14985596	      0.67523741	     -0.17389728	      0.98571092	      0.86361634	     -0.48325778	      1.03790005	      0.75308679	     -0.45566386	      0.93450523	      0.64715803	     -0.44250793	      1.24027882	      0.45847976	     -0.22821848	      1.18233061	      0.40665440	     -0.16805909	      1.20684866	      0.28109265	     -0.22843411	      0.90666728	      0.40450226	     -0.37725903	      0.82054800	      0.34107873	     -0.42030972	      0.79634863	      0.24578165	     -0.35182875	      1.07497164	      0.15428096	     -0.25610947	      1.28103801	      0.11173185	     -0.27211768	      1.25843540	      0.07081209	     -0.17258070	      0.63243722	      0.19714552	     -0.33872017	      0.79452192	      0.07963951	     -0.28793941	      0.77169480	      0.04751489	     -0.39391065	      1.06882859	      1.52090515	     -0.49912689	      1.02667613	      1.51450853	     -0.13927463	      1.11759225	      1.46949847	     -0.28242705	      1.01003663	      1.55044396	     -0.33022342	      0.97402106	      1.44976177	     -0.09741273	      0.95347302	      1.36277437	     -0.11282384	      0.87261645	      1.38977881	     -0.12013066	      0.80422329	      1.29929487	     -0.10665776	      0.80759518	      1.29931558	     -0.17189265	      1.04409513	      1.44227971	     -0.55162040	      0.97652442	      1.39388809	     -0.54157276	      1.03498564	      1.33695487	     -0.57194582	      0.96694143	      1.23514820	     -0.60475223	      0.92009846	      1.23590124	     -0.54368042	      0.84412901	      1.22079042	     -0.07573096	      0.87755309	      1.03439759	     -0.07896025	      0.81493781	      1.03152533	     -0.10496434	      1.04772239	      1.24026635	     -0.57933305	      1.18575046	      1.26741341	     -0.44836286	      1.18694038	      1.20095053	     -0.44812250
